<?xml version="1.0" standalone="no"?><!DOCTYPE svg PUBLIC "-//W3C//DTD SVG 1.1//EN" "http://www.w3.org/Graphics/SVG/1.1/DTD/svg11.dtd"><svg t="1514269996104" class="icon" style="" viewBox="0 0 1024 1024" version="1.1" xmlns="http://www.w3.org/2000/svg" p-id="5214" xmlns:xlink="http://www.w3.org/1999/xlink" width="48" height="48"><defs><style type="text/css"></style></defs><path d="M683.386 881.139c0.001 0 0.002 0 0.003 0 14.561 0 26.366-11.805 26.366-26.366 0-7.282-2.951-13.873-7.724-18.645l-324.129-324.126 324.129-324.129c4.726-4.763 7.646-11.325 7.646-18.568 0-14.561-11.805-26.366-26.366-26.366-7.243 0-13.804 2.92-18.57 7.648l-342.773 342.77c-4.773 4.772-7.724 11.363-7.724 18.645s2.951 13.873 7.724 18.645l342.772 342.772c4.76 4.77 11.34 7.721 18.609 7.721 0.012 0 0.025 0 0.037 0z" fill="#1C73E2" p-id="5215"></path></svg>