<?xml version="1.0" standalone="no"?><!DOCTYPE svg PUBLIC "-//W3C//DTD SVG 1.1//EN" "http://www.w3.org/Graphics/SVG/1.1/DTD/svg11.dtd"><svg t="1538289987832" class="icon" style="" viewBox="0 0 1024 1024" version="1.1" xmlns="http://www.w3.org/2000/svg" p-id="2446" xmlns:xlink="http://www.w3.org/1999/xlink" width="32" height="32"><defs><style type="text/css"></style></defs><path d="M512 1024C229.229714 1024 0 794.770286 0 512S229.229714 0 512 0s512 229.229714 512 512-229.229714 512-512 512z m0-36.571429c262.582857 0 475.428571-212.845714 475.428571-475.428571S774.582857 36.571429 512 36.571429 36.571429 249.417143 36.571429 512s212.845714 475.428571 475.428571 475.428571zM277.723429 465.664c-12.141714 0-21.723429-10.422857-21.723429-23.698286 0-12.324571 9.581714-22.784 21.723429-22.784h417.426285L581.449143 295.862857a26.514286 26.514286 0 0 1 0-33.206857 21.284571 21.284571 0 0 1 15.652571-6.656c5.229714 0 10.386286 1.901714 14.811429 6.656l149.284571 163.181714c0.841143 0.950857 1.755429 1.865143 2.596572 3.803429 0 0 0 0.950857 0.841143 1.901714 0 0.950857 0 0.950857 0.877714 1.901714 0 0.914286 0 1.865143 0.841143 2.816v1.938286a14.701714 14.701714 0 0 1 0 8.521143v1.901714c-0.841143 0.914286-0.841143 1.901714-0.841143 2.816 0 0.987429-0.877714 0.987429-0.877714 1.938286-0.841143 0.950857-0.841143 1.901714-0.841143 1.901714-0.841143 0.950857-1.718857 2.852571-2.596572 3.803429-0.877714 0.950857-1.718857 1.901714-3.474285 2.852571 0 0-0.877714 0-1.755429 0.914286-0.877714 0-0.877714 0.950857-1.718857 0.950857-0.914286 0.914286-0.877714 0.914286-1.755429 0.914286s-0.877714 0.950857-1.718857 0.950857H277.723429z m468.662857 92.964571c12.141714 0 21.613714 10.459429 21.613714 23.734858 0 13.275429-9.545143 22.784-21.686857 22.784H328.813714l112.822857 123.318857a24.466286 24.466286 0 0 1 0 33.206857 21.211429 21.211429 0 0 1-30.354285 0l-149.321143-163.181714c-0.841143-0.950857-1.718857-1.901714-2.596572-3.803429 0 0 0-0.950857-0.841142-1.901714 0-0.950857 0-0.950857-0.841143-1.901715 0-0.914286 0-1.901714-0.841143-2.852571v-1.901714c-0.841143-2.816-0.841143-6.619429 0.109714-8.484572v-1.901714c0.841143-0.914286 0.841143-1.901714 0.841143-2.852571 0-0.950857 0.841143-0.950857 0.841143-1.901715 0.841143-0.950857 0.841143-1.901714 0.841143-1.901714 0.877714-0.950857 1.755429-2.852571 2.596571-3.803429 0.877714-0.950857 1.755429-1.901714 3.510857-2.852571 0 0 0.841143 0 1.718857-0.914286 0.841143 0 0.841143 0 1.755429-1.024 0.841143 0 1.718857-0.914286 2.596571-0.914285h1.718858c0.877714-0.950857 2.596571-0.950857 4.352-0.950858h468.662857z" fill="#515151" p-id="2447"></path></svg>