<?xml version="1.0" standalone="no"?><!DOCTYPE svg PUBLIC "-//W3C//DTD SVG 1.1//EN" "http://www.w3.org/Graphics/SVG/1.1/DTD/svg11.dtd"><svg t="1514276786335" class="icon" style="" viewBox="0 0 1024 1024" version="1.1" xmlns="http://www.w3.org/2000/svg" p-id="14018" xmlns:xlink="http://www.w3.org/1999/xlink" width="32" height="32"><defs><style type="text/css"></style></defs><path d="M493.140978 46.399773C246.446413 46.399773 46.430984 246.372224 46.430984 493.109768c0 246.672052 200.01543 446.731484 446.709994 446.731484 246.693542 0 446.709995-200.059432 446.709995-446.731484C939.84995 246.372224 739.833497 46.399773 493.140978 46.399773z m94.009094 654.032854l-77.039607 83.147722c-4.14439 4.53734-10.121522 7.328919-16.490579 7.328919h-0.479931c-6.151094 0-12.084223-2.356674-16.358573-6.588046-9.422603-9.335622-231.81774-230.486418-231.817739-355.034039 0-128.995933 111.327528-233.998405 248.176312-233.998405 136.847761 0 248.176312 105.002472 248.176313 233.998405 0.001023 61.771879-51.868321 152.990416-154.166196 271.145444z m-94.009094-377.499704c-62.33879 0-112.811322 47.615461-112.811322 106.355284 0 58.783825 50.472532 106.377796 112.811322 106.377795 62.337767 0 112.768343-47.593971 112.768343-106.377795-0.001023-58.739822-50.430576-106.355283-112.768343-106.355284z" fill="#1C73E2" p-id="14019"></path></svg>