<?xml version="1.0" standalone="no"?><!DOCTYPE svg PUBLIC "-//W3C//DTD SVG 1.1//EN" "http://www.w3.org/Graphics/SVG/1.1/DTD/svg11.dtd"><svg t="1530181382141" class="icon" style="" viewBox="0 0 1024 1024" version="1.1" xmlns="http://www.w3.org/2000/svg" p-id="2547" xmlns:xlink="http://www.w3.org/1999/xlink" width="48" height="48"><defs><style type="text/css"></style></defs><path d="M900.928061 300.30046c-41.065937 0-74.470067 33.429367-74.470067 74.491575 0 9.996678 1.992459 19.534915 5.581341 28.254507L611.776954 608.225575c-11.809437-7.890714-25.986902-12.502755-41.225579-12.502755-7.739582 0-15.275517 1.177825-22.450211 3.444449l-70.117767-88.430028c5.313223-10.368138 8.145851-21.920242 8.145851-33.919531 0-41.062208-33.379569-74.491575-74.44346-74.491575-41.06389 0-74.444483 33.428344-74.444483 74.491575 0 3.823072 0.294724 7.602142 0.858589 11.313673L160.865209 627.222231c-11.51983-7.330966-25.1672-11.598152-39.800055-11.598152-41.06389 0-74.470067 33.429367-74.470067 74.491575 0 41.086767 33.406176 74.516134 74.470067 74.516134 41.03933 0 74.418899-33.429367 74.418899-74.516134 0-7.618515-1.154337-14.973016-3.288018-21.900799L363.62629 533.697161c0.463577 0.391926 0.9292 0.781806 1.404034 1.163499 13.150023 10.630105 29.72724 16.47523 46.656488 16.47523 9.850749 0 19.414961-1.915629 28.273062-5.561669l67.388498 84.989673c-7.283169 11.645225-11.240456 25.213241-11.240456 39.451524 0 41.085744 33.380593 74.516134 74.444483 74.516134 41.062867 0 74.44346-33.43039 74.44346-74.516134 0-6.898107-0.961947-13.573133-2.724153-19.917632l224.667895-209.261001c10.197664 5.257747 21.747171 8.247848 33.989485 8.247848 41.037283 0 74.417876-33.429367 74.417876-74.491575C975.345937 333.729827 941.965344 300.30046 900.928061 300.30046zM121.065153 713.039759c-12.646536 0-22.900484-10.278087-22.900484-22.924105 0-12.620435 10.253948-22.899546 22.900484-22.899546 12.596392 0 22.874901 10.279111 22.874901 22.899546C143.940054 702.761672 133.660522 713.039759 121.065153 713.039759zM397.377335 494.704079c-5.466726-4.408403-8.591008-10.908444-8.591008-17.886369 0-12.620435 10.278509-22.899546 22.900484-22.899546 12.620952 0 22.874901 10.278087 22.874901 22.899546 0 6.04774-2.31993 11.721973-6.505424 16.011672-0.064471 0.063445-0.132012 0.122797-0.195459 0.186242C418.790894 502.059604 402.818477 499.087922 397.377335 494.704079zM570.551375 693.1385c-12.621976 0-22.875924-10.278087-22.875924-22.923082 0-6.882757 2.994317-13.228279 8.278886-17.624403 0.340775-0.24457 0.68769-0.477884 1.018231-0.741897 0.199553-0.157589 0.389896-0.323365 0.583308-0.488117 2.840814-1.973958 7.224838-4.046153 12.995498-4.046153 12.595369 0 22.875924 10.278087 22.875924 22.899546C593.427299 682.860413 583.146744 693.1385 570.551375 693.1385zM900.928061 397.691581c-12.64756 0-22.900484-10.278087-22.900484-22.899546 0-12.620435 10.252925-22.899546 22.900484-22.899546 12.595369 0 22.873877 10.278087 22.873877 22.899546C923.801938 387.413494 913.52343 397.691581 900.928061 397.691581z" p-id="2548" fill="#707070"></path></svg>