<?xml version="1.0" standalone="no"?><!DOCTYPE svg PUBLIC "-//W3C//DTD SVG 1.1//EN" "http://www.w3.org/Graphics/SVG/1.1/DTD/svg11.dtd"><svg t="1551291285182" class="icon" style="" viewBox="0 0 1024 1024" version="1.1" xmlns="http://www.w3.org/2000/svg" p-id="3138" xmlns:xlink="http://www.w3.org/1999/xlink" width="32" height="32"><defs><style type="text/css"></style></defs><path d="M885.824 948l-726.304 0c-68.768 0-124.512-55.744-124.512-124.512l0-41.504 103.744 0c22.912 0 41.504-18.592 41.504-41.504l0-124.512c0-22.912-18.592-41.504-41.504-41.504l-103.744 0 0-124.512 103.744 0c22.912 0 41.504-18.592 41.504-41.504l0-124.512c0-22.912-18.592-41.504-41.504-41.504l-103.744 0 0-41.504c0-68.768 55.744-124.512 124.512-124.512l726.304 0c68.768 0 124.512 55.744 124.512 124.512l0 622.56c0 68.768-55.744 124.512-124.512 124.512zM689.12 672.448c-88.832-12.128-115.584-41.568-115.584-41.568-18.784-15.936-20.832-43.168-19.936-60.512 42.496-23.136 79.584-79.872 79.584-155.84 0-98.656-64.768-130.4-121.152-130.4l0 0.032c-56.352 0-121.152 31.712-121.152 130.368 0 75.968 37.12 132.704 79.584 155.84 0.928 17.344-1.12 44.576-19.936 60.512 0 0-26.72 29.44-115.584 41.568 0 0-34.4 6.048-51.168 68.352l456.576 0c-16.8-62.304-51.2-68.352-51.2-68.352zM116.48 283.904c12.512 0 22.688 10.016 22.688 22.4l0 79.552c0 12.352-10.144 22.4-22.688 22.4l-79.552 0c-12.512 0-22.688-15.232-22.688-27.584l0-74.368c0-12.384 10.176-22.4 22.688-22.4l79.552 0zM36.928 615.936l79.552 0c12.512 0 22.688 10.048 22.688 22.4l0 79.552c0 12.352-10.144 22.4-22.688 22.4l-79.552 0c-12.512 0-22.688-15.232-22.688-27.584l0-74.336c0-12.384 10.176-22.4 22.688-22.4z" p-id="3139" fill="#9D9D9D"></path></svg>