<?xml version="1.0" standalone="no"?><!DOCTYPE svg PUBLIC "-//W3C//DTD SVG 1.1//EN" "http://www.w3.org/Graphics/SVG/1.1/DTD/svg11.dtd"><svg t="1514277600826" class="icon" style="" viewBox="0 0 1024 1024" version="1.1" xmlns="http://www.w3.org/2000/svg" p-id="18195" xmlns:xlink="http://www.w3.org/1999/xlink" width="32" height="32"><defs><style type="text/css"></style></defs><path d="M512 83.29c-238.85 0-428.7 189.85-428.7 428.7 0 55.12 12.25 104.12 24.5 147l6.13 12.25C181.29 830.47 334.4 940.71 512 940.71c238.85 0 428.71-189.86 428.71-428.71S750.85 83.29 512 83.29z m-18.37 734.93c-6.12 0-6.12 0-12.25-6.12l-42.87-42.87V806c0 6.13-6.13 12.25-12.25 12.25S414 812.09 414 806V701.86c0-6.13 6.13-12.25 12.25-12.25s12.25 6.12 12.25 12.25v30.62l42.87-36.74c6.13-6.12 6.13-6.12 12.25-6.12s12.25 6.12 12.25 12.25 0 6.12-6.12 12.25l-42.87 36.74 49 49C512 806 512 806 512 812.09c-6.12 0-6.12 6.12-18.37 6.12zM573.25 855q-36.75 0-36.75-18.37c0-6.13 6.13-12.25 12.25-12.25s6.12 0 12.25 6.13 12.25 6.13 18.37 6.13 12.25 0 18.37-12.25c-12.25-6.13-18.37-6.13-24.49-6.13-18.38 0-42.87-12.25-42.87-49s24.49-49 42.87-49c6.12 0 12.25 0 18.37 6.13 0-6.13 6.12-6.13 12.25-6.13s12.25 6.13 12.25 12.25V806c0 30.63-18.38 42.87-42.87 49z m-30.63-232.76l73.49-294c6.12-12.25-6.12-30.62-18.38-30.62-12.25-6.13-24.49 6.12-30.62 18.37l-73.48 306.25H156.79Q138.41 567.12 138.41 512c0-208.23 165.36-373.58 373.59-373.58S885.58 303.77 885.58 512q0 55.13-18.37 110.24z m30.62 122.49c-6.13 0-18.38 6.12-18.38 24.5 0 24.5 12.25 24.5 18.38 24.5s18.37-6.12 18.37-24.5c0-24.5-12.25-24.5-18.37-24.5z m0 0" p-id="18196" fill="#FE5F52"></path></svg>